<?xml version="1.0" standalone="no"?><!DOCTYPE svg PUBLIC "-//W3C//DTD SVG 1.1//EN" "http://www.w3.org/Graphics/SVG/1.1/DTD/svg11.dtd"><svg class="icon" height="512" viewBox="0 0 1024 1024" version="1.1" xmlns="http://www.w3.org/2000/svg"><path d="M113.832 444.178c-9.32-22.78-21.4-41.072-27.958-45.903-6.558-4.832-19.327-31.41-19.327-31.41s0.158 42.109 0.247 89.778l-0.307-89.777s-12.77 26.578-19.328 31.409c-6.56 4.83-18.638 23.124-27.957 45.903-9.32 22.78-22.09 80.422-7.594 114.245 14.38 33.551 44.027 61.996 44.502 62.45 2.339 9.36 6.973 35.023 5.645 36.264h13.844l2.2-37.12c5.065-5.017 30.605-31.21 43.626-61.593 14.496-33.825 1.725-91.467-7.593-114.246z m83.427 71.318c6.74-6.74 10.72-10.617 11.932-11.63 3.033-2.56 6.301-4.549 9.808-5.964 3.505-1.416 6.978-2.123 10.416-2.123 5.796 0 10.785 1.686 14.965 5.055 4.179 3.37 6.977 8.259 8.392 14.662 6.944-8.09 12.808-13.399 17.595-15.926 4.785-2.528 9.707-3.791 14.763-3.791 4.922 0 9.285 1.263 13.096 3.79 3.807 2.528 6.824 6.659 9.05 12.387 1.482 3.911 2.224 10.045 2.224 18.403v39.842c0 5.798 0.437 9.777 1.314 11.931 0.674 1.485 1.922 2.749 3.742 3.792 1.82 1.044 4.785 1.568 8.897 1.568v3.64h-45.705v-3.64h1.921c3.977 0 7.078-0.775 9.303-2.328 1.55-1.077 2.662-2.795 3.337-5.156 0.27-1.143 0.405-4.414 0.405-9.807v-39.842c0-7.549-0.91-12.873-2.73-15.975-2.629-4.314-6.844-6.472-12.64-6.472-3.573 0-7.163 0.893-10.77 2.679-3.606 1.788-7.97 5.106-13.093 9.96l-0.203 1.112 0.203 4.35V570.2c0 6.337 0.354 10.28 1.06 11.83 0.709 1.553 2.04 2.85 3.995 3.894 1.953 1.044 5.29 1.568 10.01 1.568v3.64H221.73v-3.64c5.123 0 8.646-0.607 10.567-1.82 1.92-1.214 3.252-3.034 3.994-5.46 0.336-1.146 0.506-4.484 0.506-10.011v-39.843c0-7.549-1.113-12.975-3.337-16.279-2.967-4.314-7.113-6.471-12.438-6.471-3.64 0-7.248 0.978-10.819 2.932-5.597 2.967-9.91 6.303-12.943 10.01v49.65c0 6.068 0.42 10.01 1.264 11.83 0.841 1.82 2.09 3.186 3.741 4.095 1.65 0.912 5.006 1.367 10.061 1.367v3.64H166.52v-3.64c4.247 0 7.212-0.455 8.898-1.367 1.685-0.91 2.965-2.356 3.842-4.347 0.875-1.988 1.315-5.848 1.315-11.577v-35.393c0-10.176-0.303-16.75-0.91-19.717-0.472-2.224-1.214-3.757-2.224-4.601-1.011-0.842-2.395-1.264-4.147-1.264-1.889 0-4.145 0.505-6.775 1.516l-1.517-3.64 27.908-11.324h4.348v19.717z m178.877-19.717c14.021 0 25.28 5.326 33.773 15.975 7.212 9.102 10.82 19.55 10.82 31.346 0 8.291-1.99 16.685-5.966 25.179-3.979 8.492-9.455 14.898-16.432 19.212-6.977 4.314-14.747 6.47-23.307 6.47-13.954 0-25.046-5.561-33.268-16.685-6.945-9.37-10.415-19.885-10.415-31.549 0-8.494 2.106-16.937 6.32-25.329 4.213-8.393 9.758-14.593 16.634-18.607 6.875-4.008 14.156-6.012 21.841-6.012z m-3.134 6.571c-3.574 0-7.163 1.062-10.77 3.186-3.607 2.123-6.521 5.848-8.746 11.172-2.223 5.327-3.337 12.17-3.337 20.527 0 13.485 2.68 25.113 8.04 34.886 5.358 9.778 12.418 14.662 21.183 14.662 6.539 0 11.932-2.696 16.18-8.088s6.37-14.662 6.37-27.807c0-16.449-3.538-29.393-10.617-38.83-4.788-6.472-10.89-9.708-18.303-9.708z m88.377 13.045c10.852-13.077 21.2-19.616 31.043-19.616 5.056 0 9.404 1.263 13.044 3.79s6.538 6.693 8.696 12.49c1.481 4.044 2.225 10.247 2.225 18.605v39.538c0 5.863 0.471 9.843 1.416 11.931 0.74 1.687 1.938 3.003 3.59 3.944 1.649 0.946 4.702 1.417 9.15 1.417v3.64h-45.806v-3.64h1.921c4.314 0 7.331-0.66 9.05-1.973 1.72-1.314 2.915-3.252 3.59-5.814 0.268-1.011 0.404-4.18 0.404-9.505v-37.919c0-8.426-1.096-14.544-3.285-18.354-2.192-3.808-5.883-5.713-11.074-5.713-8.022 0-16.01 4.383-23.964 13.146v48.84c0 6.27 0.37 10.147 1.112 11.627 0.942 1.957 2.241 3.389 3.894 4.297 1.65 0.912 5.006 1.367 10.06 1.367v3.64h-45.807v-3.64h2.024c4.718 0 7.903-1.197 9.554-3.591 1.65-2.393 2.478-6.96 2.478-13.701v-34.382c0-11.122-0.253-17.897-0.759-20.323-0.505-2.427-1.282-4.077-2.325-4.955-1.045-0.876-2.444-1.314-4.196-1.314-1.89 0-4.146 0.505-6.776 1.516l-1.516-3.64 27.908-11.324h4.348v19.616z m101.32 41.964c-5.664-2.764-10.012-6.624-13.045-11.578-3.034-4.954-4.55-10.43-4.55-16.433 0-9.166 3.453-17.054 10.363-23.66 6.91-6.606 15.756-9.91 26.545-9.91 8.83 0 16.48 2.158 22.953 6.47h19.617c2.898 0 4.583 0.086 5.056 0.254 0.47 0.17 0.808 0.455 1.01 0.86 0.406 0.606 0.607 1.686 0.607 3.236 0 1.753-0.17 2.967-0.506 3.64-0.2 0.339-0.556 0.608-1.061 0.81-0.505 0.202-2.208 0.302-5.106 0.302H612.55c3.772 4.854 5.662 11.057 5.662 18.606 0 8.63-3.305 16.01-9.91 22.145-6.607 6.134-15.47 9.202-26.594 9.202-4.585 0-9.271-0.673-14.055-2.023-2.967 2.562-4.972 4.802-6.017 6.723-1.045 1.923-1.567 3.558-1.567 4.905 0 1.147 0.556 2.258 1.668 3.336 1.114 1.081 3.286 1.855 6.523 2.328 1.887 0.27 6.604 0.503 14.156 0.705 13.886 0.337 22.884 0.81 27 1.417 6.269 0.877 11.275 3.204 15.015 6.977 3.741 3.775 5.612 8.424 5.612 13.953 0 7.616-3.573 14.764-10.72 21.437-10.516 9.841-24.235 14.764-41.154 14.764-13.012 0-24-2.934-32.964-8.798-5.055-3.37-7.585-6.876-7.585-10.515 0-1.619 0.37-3.235 1.113-4.854 1.144-2.496 3.504-5.966 7.079-10.415 0.47-0.606 3.908-4.247 10.313-10.921-3.507-2.089-5.985-3.96-7.432-5.612-1.45-1.65-2.174-3.521-2.174-5.612 0-2.356 0.96-5.122 2.881-8.29 1.922-3.168 6.354-7.653 13.298-13.449z m-1.013 33.773c-3.168 3.438-5.56 6.64-7.177 9.606-1.62 2.964-2.429 5.694-2.429 8.19 0 3.236 1.954 6.069 5.865 8.495 6.74 4.18 16.482 6.27 29.223 6.27 12.134 0 21.083-2.143 26.846-6.421 5.764-4.282 8.646-8.848 8.646-13.701 0-3.508-1.72-6.002-5.157-7.484-3.508-1.485-10.45-2.36-20.83-2.63-15.167-0.404-26.83-1.182-34.987-2.325z m18.607-90.5c-4.99 0-9.17 1.988-12.539 5.965-3.371 3.978-5.055 10.08-5.055 18.302 0 10.652 2.291 18.91 6.876 24.775 3.506 4.45 7.953 6.673 13.348 6.673 5.122 0 9.334-1.923 12.64-5.764 3.303-3.844 4.955-9.875 4.955-18.1 0-10.72-2.325-19.112-6.977-25.179-3.439-4.448-7.856-6.673-13.248-6.673z m106.476-4.853c14.02 0 25.279 5.326 33.773 15.975 7.212 9.102 10.82 19.55 10.82 31.346 0 8.291-1.99 16.685-5.967 25.179-3.978 8.492-9.454 14.898-16.432 19.212-6.975 4.314-14.746 6.47-23.306 6.47-13.955 0-25.046-5.561-33.268-16.685-6.945-9.37-10.415-19.885-10.415-31.549 0-8.494 2.105-16.937 6.319-25.329 4.213-8.393 9.758-14.593 16.634-18.607 6.877-4.008 14.158-6.012 21.842-6.012z m-3.134 6.571c-3.574 0-7.164 1.062-10.769 3.186-3.608 2.123-6.522 5.848-8.747 11.172-2.225 5.327-3.337 12.17-3.337 20.527 0 13.485 2.68 25.113 8.038 34.886 5.36 9.778 12.421 14.662 21.185 14.662 6.538 0 11.931-2.696 16.18-8.088s6.37-14.662 6.37-27.807c0-16.449-3.54-29.393-10.618-38.83-4.788-6.472-10.889-9.708-18.302-9.708z m57.636 88.782v-3.74h4.55c3.977 0 7.028-0.624 9.151-1.872 2.124-1.245 3.691-2.948 4.703-5.106 0.606-1.417 0.91-5.662 0.91-12.741v-90.197c0-7.01-0.372-11.392-1.112-13.145-0.743-1.752-2.243-3.287-4.5-4.6-2.258-1.315-5.309-1.972-9.15-1.972h-4.55v-3.743h61.377c16.382 0 29.56 2.224 39.538 6.674 12.2 5.46 21.452 13.72 27.756 24.774 6.301 11.056 9.454 23.56 9.454 37.514 0 9.642-1.55 18.524-4.65 26.644-3.103 8.124-7.114 14.832-12.034 20.122-4.923 5.293-10.6 9.541-17.038 12.741-6.44 3.204-14.308 5.683-23.61 7.434-4.114 0.81-10.586 1.213-19.416 1.213h-61.379z m52.278-129.33v106.983c0 5.662 0.27 9.134 0.81 10.416 0.537 1.28 1.446 2.258 2.73 2.931 1.819 1.011 4.45 1.517 7.886 1.517 11.256 0 19.851-3.842 25.785-11.529 8.09-10.381 12.135-26.492 12.135-48.333 0-17.595-2.765-31.65-8.293-42.166-4.382-8.223-10.011-13.819-16.886-16.786-4.852-2.088-12.91-3.1-24.167-3.033z m186.663 56.627c13.01 3.032 22.146 6.706 27.403 11.021 7.548 6.136 11.324 14.091 11.324 23.864 0 10.315-4.145 18.843-12.437 25.583-10.18 8.158-24.975 12.235-44.39 12.235h-69.67v-3.74c6.336 0 10.634-0.59 12.893-1.77 2.256-1.18 3.843-2.712 4.753-4.601 0.91-1.887 1.365-6.54 1.365-13.955v-88.985c0-7.413-0.454-12.084-1.365-14.004-0.91-1.922-2.512-3.455-4.803-4.602-2.294-1.145-6.573-1.718-12.843-1.718v-3.743h65.727c15.705 0 26.828 1.4 33.367 4.197 6.54 2.799 11.697 6.977 15.473 12.539 3.773 5.561 5.66 11.476 5.66 17.746 0 6.607-2.393 12.487-7.178 17.645-4.786 5.158-13.213 9.254-25.279 12.288z m-36.806 5.157v43.984l-0.102 5.056c0 3.642 0.926 6.39 2.781 8.243 1.853 1.853 4.6 2.78 8.242 2.78 5.39 0 10.364-1.195 14.913-3.59 4.551-2.392 8.04-5.863 10.467-10.415s3.64-9.623 3.64-15.22c0-6.402-1.483-12.15-4.45-17.24-2.965-5.09-7.045-8.646-12.233-10.667-5.193-2.021-12.944-2.999-23.258-2.931z m0-7.889c9.572 0 16.634-1.077 21.182-3.235 4.551-2.156 8.04-5.19 10.468-9.102 2.426-3.909 3.64-8.897 3.64-14.965 0-6.067-1.198-11.038-3.59-14.915-2.394-3.875-5.816-6.825-10.263-8.848-4.45-2.022-11.596-3-21.436-2.932v53.997z" /></svg>